<svg xmlns="http://www.w3.org/2000/svg" version="1.1" xmlns:xlink="http://www.w3.org/1999/xlink" xmlns:svgjs="http://svgjs.com/svgjs" width="40" height="40" x="0" y="0" viewBox="0 0 64 64" style="enable-background:new 0 0 512 512" xml:space="preserve" class=""><g><g id="Flat"><g id="Color"><circle cx="52.5" cy="52.5" fill="#7950f2" r="8.5" data-original="#00b3b1" class=""></circle><circle cx="52.5" cy="52.5" fill="#b197fc" r="3.5" data-original="#009492" class=""></circle><path d="m16.506 60.753c3.511-.9 8.045-2.538 11.416-5.4a8.1 8.1 0 0 0 1.963-9.5c-2.464-5.453-4.814-15.776 7.115-23.598 0 0 4.933-2.859 9.58-.586a1.965 1.965 0 0 0 2.48-.69l3.119-4.606a2.053 2.053 0 0 0 -.118-2.451 29.965 29.965 0 0 0 -23.061-10.922c-21.226 0-33.064 33.6-21.376 53.929a7.972 7.972 0 0 0 8.882 3.824z" fill="#7950f2" data-original="#00b3b1" class=""></path><path d="m52.18 16.37-3.12 4.61a1.962 1.962 0 0 1 -2.48.69c-3.4-1.66-6.96-.58-8.62.12 1.14-8.82-.79-14.63-2.9-18.17a30.267 30.267 0 0 1 17 10.3 2.043 2.043 0 0 1 .12 2.45z" fill="#b197fc" data-original="#009492" class=""></path><path d="m48.6 44.952c-1.673-3.952.8-7.252 3.046-10.252.442-.589.851-1.138 1.192-1.643a12 12 0 0 0 2.045-9.572 15.2 15.2 0 0 0 -3.257-6.293l-2.361 3.485a10.318 10.318 0 0 1 1.716 3.69 8.048 8.048 0 0 1 -1.461 6.453c-.307.455-.677.949-1.075 1.48-2.487 3.32-6.661 8.905-2.967 15.412a8.536 8.536 0 0 1 3.122-2.76z" fill="#b197fc" data-original="#e6e7e8" class=""></path><path d="m17.73 6.506a29.412 29.412 0 0 0 -8.69 9.466 3.662 3.662 0 0 1 -1.233-5.38 33.177 33.177 0 0 1 4.643-5.08 3.445 3.445 0 0 1 5.28.994z" fill="#b197fc" data-original="#009492" class=""></path><path d="m36.72 10.8c-6.66.37-19.76 3.38-22.71 21.04-1.68 10.07.65 18.99 6.85 26.45q.338.4.683.8c.63-.26 1.26-.54 1.885-.849-.189-.274-.445-.524-.648-.786-6.11-7.13-8.4-15.64-6.79-25.29 2.67-15.99 13.98-19.07 21.06-19.37.348-.024.674-.032 1-.03-.087-.693-.191-1.361-.318-1.994-.319 0-.653.012-1.012.029z" fill="#b197fc" data-original="#e6e7e8" class=""></path></g></g></g></svg>